<?xml version="1.0" standalone="no"?>
<!DOCTYPE svg PUBLIC "-//W3C//DTD SVG 20010904//EN"
 "http://www.w3.org/TR/2001/REC-SVG-20010904/DTD/svg10.dtd">
<svg version="1.0" xmlns="http://www.w3.org/2000/svg"
 width="500.000000pt" height="500.000000pt" viewBox="0 0 500.000000 500.000000"
 preserveAspectRatio="xMidYMid meet">



<g transform="translate(0.000000,500.000000) scale(0.100000,-0.100000)"
fill="rgb(0, 0, 108)" stroke="none">
<path d="M2500 4339 c-102 -9 -139 -20 -166 -50 -15 -16 -16 -33 -10 -126 4
-60 11 -144 16 -188 5 -44 14 -132 20 -195 31 -355 45 -455 64 -486 21 -31 74
-40 151 -25 34 6 86 11 114 11 29 0 61 5 72 10 19 11 52 64 44 72 -2 2 -9 62
-15 133 -14 156 -27 298 -40 420 -5 50 -14 145 -19 212 -11 131 -26 181 -62
207 -25 17 -27 17 -169 5z"/>
<path d="M4332 3673 c-73 -78 -208 -230 -291 -327 -23 -28 -72 -82 -106 -121
-91 -100 -170 -196 -184 -223 -7 -13 -8 -28 -3 -38 17 -30 214 -204 239 -210
13 -4 35 -2 47 4 23 10 122 116 291 312 50 57 122 138 160 180 155 169 202
226 209 254 7 27 1 35 -75 108 -92 88 -162 138 -193 138 -13 0 -49 -30 -94
-77z"/>
<path d="M653 3601 c-43 -49 -87 -105 -98 -124 -36 -67 -38 -65 349 -382 114
-93 242 -199 284 -234 43 -35 92 -70 110 -78 43 -18 58 -9 138 82 108 122 133
175 101 215 -13 18 -183 164 -226 195 -30 21 -94 74 -175 143 -274 232 -328
272 -372 272 -28 0 -42 -11 -111 -89z"/>
<path d="M2555 2686 c-60 -32 -117 -63 -126 -71 -8 -8 -20 -15 -26 -15 -6 0
-27 -12 -48 -26 -21 -14 -81 -48 -134 -76 -53 -28 -103 -56 -111 -64 -9 -7
-31 -20 -50 -29 -19 -9 -53 -27 -75 -40 -22 -14 -88 -52 -147 -85 -137 -77
-168 -103 -168 -141 0 -33 57 -145 101 -201 52 -65 56 -64 379 122 123 71 243
139 275 155 22 12 72 40 111 63 99 58 153 71 199 49 29 -14 197 -133 242 -172
6 -5 43 -32 82 -60 40 -27 120 -86 179 -131 233 -175 237 -176 310 -83 76 98
102 140 102 167 0 34 -45 74 -265 237 -105 76 -192 142 -195 145 -3 3 -25 20
-50 38 -345 255 -359 264 -423 270 -49 4 -61 0 -162 -52z"/>
<path d="M2550 1801 c-63 -26 -149 -64 -190 -83 -41 -20 -104 -48 -140 -63
-97 -41 -145 -63 -256 -116 -56 -27 -106 -49 -110 -49 -27 0 -140 -68 -153
-92 -18 -32 -11 -57 46 -176 56 -115 77 -122 205 -66 131 57 193 84 323 145
50 23 126 57 170 76 44 20 99 44 123 55 91 40 172 38 221 -6 10 -9 20 -16 23
-16 6 0 143 -91 276 -183 43 -31 101 -71 127 -89 155 -108 253 -167 277 -168
37 0 88 57 159 180 25 42 25 47 12 75 -15 31 -111 105 -304 235 -57 39 -178
122 -269 185 -91 62 -200 134 -242 159 -105 63 -142 62 -298 -3z"/>
<path d="M797 1682 c-62 -22 -140 -91 -177 -155 -25 -44 -30 -63 -30 -123 0
-187 157 -324 359 -312 226 14 374 234 285 423 -35 72 -120 150 -188 170 -67
20 -189 18 -249 -3z"/>
</g>
</svg>
